# xmcd
#
# Track frame offsets:
#	150
#	14212
#	31832
#	44780
#	60867
#	77290
#	96015
#
# Disc length: 1408 seconds
#
# Revision: 0
# Processed by: cddbd v1.5.2PL0 Copyright (c) Steve Scherf et al.
# Submitted via: FairStars CD Ripper 1.90
#
DISCID=4c057e07
DTITLE=Various Artist - Welcome To Capitol Country
DYEAR=2000
DGENRE=Country
TTITLE0=Trace Adkins - More
TTITLE1=Steve Wariner - Faith In You
TTITLE2=Chris LeDoux - He Rides The Wild Horses
TTITLE3=Tyler England - I Drove Her To Dallas
TTITLE4=Mindy McCready - Scream
TTITLE5=Keith Urban - Your Everything
TTITLE6=Tim Wilson - Chucky Cheese Hell
EXTD=
EXTT0=
EXTT1=
EXTT2=
EXTT3=
EXTT4=
EXTT5=
EXTT6=
PLAYORDER=
